<svg width="400mm" height="400mm" viewBox="0 0 400 400" xmlns="http://www.w3.org/2000/svg"><g style="display:inline;opacity:1"><path style="fill:#dd2f26;fill-opacity:1;stroke:none;stroke-width:.250528;stroke-linecap:round;stroke-miterlimit:50;stroke-dasharray:none;stroke-opacity:1" d="M69.505 11.937h270.07c29.88 0 53.936 24.056 53.936 53.936v270.07c0 29.88-24.055 53.936-53.936 53.936H69.505c-29.88 0-53.935-24.056-53.935-53.936V65.873c0-29.88 24.055-53.936 53.935-53.936z" transform="translate(-17.594 -12.247) scale(1.05776)"/></g><g style="stroke-width:1.14318;fill:#fff;fill-opacity:1"><path d="M535.84 853.244 559.277 575.9h34.375l-23.437 277.344zM424.512 782.93v-33.203h195.312v33.203zm26.172 70.313L474.12 575.9h34.375L485.06 853.244zm-26.172-173.828v-33.204h195.312v33.204z" style="font-size:400px;line-height:1.25;font-family:'Cascadia Code';-inkscape-font-specification:'Cascadia Code';letter-spacing:0;word-spacing:0;white-space:pre;display:inline;fill:#fff;stroke-width:.240068;fill-opacity:1" transform="translate(-375.49 -587.542) scale(1.10212)" aria-label="#"/></g></svg>